<?xml version="1.0" encoding="UTF-8"?>
<svg id="Layer_1" data-name="Layer 1" xmlns="http://www.w3.org/2000/svg" viewBox="0 0 274.72 114.02">
  <defs>
    <style>
      .cls-1 {
        fill: #0b5f91;
      }
    </style>
  </defs>
  <g>
    <path class="cls-1" d="M64.22,113.53c-4.41,0-8.26-1.75-11.42-5.2-5.66-6.32-8.52-14.71-8.52-24.95,0-3.67.9-8.24,2.68-13.58-.02.02-.04.04-.06.07-.43.48-.97,1.13-1.58,1.93-.67.86-2.07,2.47-4.15,4.78-2.1,2.34-4.3,4.56-6.54,6.61-6.06,5.78-12.22,10.28-18.29,13.36-1.56.78-3.28,1.17-5.12,1.17-7.11,0-10.71-5.34-10.71-15.88,0-9.2,4.4-20.39,13.09-33.29,4.1-5.97,9.09-11.9,14.82-17.63s11.89-10.9,18.32-15.37c6.44-4.48,13.53-8.14,21.09-10.9,7.58-2.76,15.07-4.16,22.27-4.16,1.29,0,2.95.42,5.08,1.3,3.69,1.6,5.49,3.3,5.49,5.22,0,.7-.3,1.89-2.28,2.04-.2,0-.25.03-.25.03.02.05.16.46,1.85,1.8,1.49,1.19,2.22,2.32,2.22,3.47s-.37,2.08-1.1,2.92c-4.63,5.09-8.38,9.39-11.18,12.79-2.73,3.33-4.88,5.9-6.37,7.63-1.37,1.58-2.96,3.48-4.89,5.8-1.8,2.17-3.83,4.93-6.05,8.21-2.23,3.3-4.29,6.6-6.13,9.83-4.22,7.8-6.37,15.04-6.37,21.5s.61,12.78,1.81,18.64c1.18,5.79,2.41,9.35,3.64,10.59.09.09.15.22.15.35,0,.42-.26.92-1.48.92ZM92.92,10.17c-7.07,1.11-14.67,4.05-22.58,8.74-7.94,4.71-15.25,10.24-21.73,16.43-6.48,6.21-12.54,12.64-18.01,19.12-5.46,6.47-9.75,12.38-12.75,17.55-2.97,5.12-4.48,8.8-4.48,10.94-.01.02.05.06.27.06.25,0,.93-.13,2.79-1,1.45-.68,6.61-4.8,15.34-12.24,8.75-7.45,20.05-18.1,33.61-31.65l26.85-26.99c.53-.53.72-.82.79-.96-.03,0-.07,0-.12,0Z"/>
    <path class="cls-1" d="M90.09,1c1.21,0,2.84.42,4.9,1.26,3.45,1.49,5.17,3.08,5.17,4.76,0,.93-.61,1.45-1.82,1.54-.47,0-.7.19-.7.56s.68,1.1,2.03,2.17c1.35,1.07,2.03,2.1,2.03,3.08s-.33,1.84-.98,2.59c-4.66,5.13-8.39,9.39-11.19,12.8-2.8,3.4-4.92,5.94-6.36,7.62-1.45,1.68-3.08,3.61-4.9,5.8-1.82,2.19-3.85,4.94-6.08,8.25-2.24,3.31-4.29,6.6-6.15,9.86-4.29,7.93-6.43,15.17-6.43,21.75s.61,12.82,1.82,18.74c1.21,5.92,2.47,9.53,3.78,10.84,0,.28-.33.42-.98.42-4.29,0-7.97-1.68-11.05-5.04-5.59-6.25-8.39-14.45-8.39-24.61,0-3.64.88-8.11,2.66-13.43.09-.37.14-.65.14-.84s-.07-.28-.21-.28-.42.23-.84.7c-.42.47-.96,1.12-1.61,1.96-.65.84-2.03,2.43-4.13,4.75-2.1,2.33-4.27,4.52-6.5,6.57-6.06,5.78-12.12,10.21-18.18,13.29-1.49.75-3.13,1.12-4.9,1.12-6.8,0-10.21-5.13-10.21-15.38,0-9.14,4.34-20.14,13.01-33.01,4.1-5.97,9.02-11.82,14.75-17.55,5.73-5.73,11.82-10.84,18.25-15.31,6.43-4.48,13.43-8.09,20.98-10.84,7.55-2.75,14.92-4.13,22.1-4.13M13.66,83.52c.51,0,1.51-.35,3.01-1.05,1.49-.7,6.64-4.8,15.45-12.31,8.81-7.5,20.02-18.06,33.64-31.68l26.85-26.99c.65-.65.98-1.12.98-1.4s-.23-.42-.7-.42c-7.18,1.12-14.78,4.06-22.8,8.81-8.02,4.75-15.29,10.26-21.82,16.5-6.53,6.25-12.54,12.63-18.04,19.16-5.5,6.53-9.77,12.4-12.8,17.62-3.03,5.22-4.54,8.95-4.54,11.19,0,.37.26.56.77.56M90.09,0c-7.26,0-14.81,1.41-22.44,4.19-7.6,2.77-14.74,6.46-21.21,10.96-6.45,4.49-12.64,9.68-18.39,15.43-5.75,5.75-10.75,11.7-14.87,17.69C4.43,61.25,0,72.54,0,81.84c0,10.87,3.77,16.38,11.21,16.38,1.92,0,3.71-.41,5.34-1.22,6.12-3.11,12.32-7.64,18.43-13.46,2.23-2.04,4.44-4.28,6.56-6.63,2.09-2.32,3.49-3.94,4.17-4.81,0,0,0,0,0,0-1.28,4.34-1.93,8.13-1.93,11.28,0,10.37,2.91,18.87,8.65,25.28,3.27,3.56,7.23,5.37,11.79,5.37,1.84,0,1.98-1.09,1.98-1.42,0-.27-.11-.52-.29-.71-.8-.8-2.05-3.24-3.5-10.33-1.19-5.83-1.8-12.06-1.8-18.54s2.12-13.53,6.31-21.27c1.83-3.19,3.88-6.49,6.1-9.78,2.21-3.27,4.24-6.02,6.02-8.17,1.92-2.31,3.52-4.21,4.88-5.79,1.5-1.74,3.64-4.31,6.38-7.64,2.79-3.39,6.54-7.68,11.16-12.76.83-.95,1.24-2.04,1.24-3.26,0-1.31-.79-2.57-2.41-3.86-.58-.46-.96-.8-1.21-1.04,1.86-.41,2.08-1.81,2.08-2.44,0-2.13-1.89-3.99-5.78-5.67-2.21-.9-3.94-1.34-5.29-1.34h0ZM13.91,82.47c.16-1.57,1.11-4.56,4.38-10.21,2.99-5.15,7.26-11.03,12.7-17.48,5.45-6.47,11.5-12.89,17.97-19.08,6.44-6.17,13.72-11.67,21.64-16.37,7.41-4.4,14.54-7.24,21.22-8.47l-26.77,26.91c-13.54,13.54-24.84,24.18-33.58,31.62-10.83,9.23-14.26,11.71-15.23,12.16-1.32.62-2,.84-2.33.91h0Z"/>
  </g>
  <g>
    <path class="cls-1" d="M155.88,37.72c-1.92-.32-2.94-1.55-2.94-3.57,0-2.94,1.76-5.83,5.22-8.57,3.48-2.75,6.28-4.09,8.56-4.09,1.11,0,1.83.25,2.22.76,1.38,1.68,2.06,3.04,2.06,4.15s-.32,2.04-.95,2.83c-.56.7-1.25,1.51-2.05,2.4-.83.93-2.42,2.14-4.86,3.72-2.45,1.58-4.87,2.39-7.19,2.39-.03,0-.06,0-.08,0Z"/>
    <path class="cls-1" d="M166.73,21.98c.93,0,1.54.19,1.82.56,1.3,1.59,1.96,2.87,1.96,3.85s-.28,1.82-.84,2.52-1.24,1.49-2.03,2.38c-.79.89-2.38,2.1-4.76,3.64-2.38,1.54-4.69,2.31-6.92,2.31-1.68-.28-2.52-1.3-2.52-3.08,0-2.8,1.68-5.52,5.04-8.18,3.36-2.66,6.11-3.99,8.25-3.99M166.73,20.98c-2.4,0-5.3,1.37-8.87,4.2-3.59,2.84-5.41,5.86-5.41,8.97,0,2.26,1.19,3.7,3.35,4.06.05,0,.11.01.16.01,2.42,0,4.94-.83,7.47-2.47,2.48-1.6,4.1-2.85,4.96-3.81.8-.9,1.5-1.71,2.06-2.42.7-.88,1.06-1.93,1.06-3.14s-.71-2.69-2.19-4.48c-.46-.61-1.31-.92-2.59-.92h0Z"/>
  </g>
  <g>
    <path class="cls-1" d="M220.57,96.18c-7.48,0-11.27-4.03-11.27-11.97,0-2.98,1.16-6.14,3.45-9.38l5.46-7.49c-15.45,12.84-25.49,20.5-29.85,22.77-.79.5-1.82.76-3.03.76-4.23,0-5.12-2.55-5.12-4.7,0-1.02.26-1.96.78-2.78,5.41-7.84,9.62-13.18,12.53-15.9l.86-.86-13.63,10.71c-8.77,6.88-13.44,10.45-14.27,10.89-.86.46-1.67.69-2.4.69s-1.84-.41-3.32-1.25c-1.56-.88-2.35-1.95-2.35-3.16,0-.38.16-.82.49-1.38,4.04-4.46,7.61-8.58,10.68-12.34-3,2.5-5.86,4.83-8.54,6.97-11,8.85-19.24,14.15-24.5,15.75-1.73.48-3.61.72-5.6.72-7.48,0-11.27-4.03-11.27-11.97,0-2.09.79-4.81,2.34-8.12-1.53,1.25-3.02,2.45-4.47,3.61-11,8.85-19.24,14.15-24.5,15.75-1.73.48-3.52.72-5.32.72s-3.26-.15-4.33-.44c-1.08-.29-2.27-.93-3.53-1.9-2.58-2.18-3.83-6.79-3.83-14.1,0-2.04.84-5.03,2.56-9.14,1.69-4.03,4.5-8.95,8.37-14.63,3.86-5.68,8.44-11.44,13.61-17.12,5.18-5.69,11.84-11.45,19.8-17.13,7.97-5.68,16.59-10.36,25.63-13.9,1.47-.49,2.79-.73,3.96-.73,1.25,0,2.41.55,3.44,1.62.98,1.03,1.67,2.1,2.07,3.18l.68,1.35c.03.07.05.15.05.22,0,2.29-3.29,7.02-10.06,14.46-6.79,7.54-14.75,14.83-23.63,21.67-8.88,6.83-17.24,12.75-24.86,17.58-6.06,3.98-9.14,8.17-9.14,12.44,0,3.84,1.41,3.84,1.88,3.84,2.97,0,9.03-2.75,17.99-8.18,8.77-5.31,16.91-10.7,24.19-16.04.78-1.03,1.49-1.95,2.18-2.79,3.53-4.35,5.84-6.7,7.05-7.21,1.68-1.03,3.61-1.58,5.65-1.58s3.96.39,5.79,1.16c.95.47,1.15,1.12,1.15,1.58,0,.61-.47,1.39-1.47,2.44-.89.93-2.24,2.38-4.05,4.33-1.8,1.94-4.52,5.34-8.08,10.1-3.55,4.75-5.95,8.77-7.13,11.97-.73,1.3-1.09,2.39-1.09,3.32,0,.62.2,1.04,1.18,1.04.41,0,1.29-.14,3.19-.81,15.31-8.03,30.63-17.52,45.49-28.18.41-.65.8-1.28,1.17-1.89,1.35-2.2,2.45-3.79,3.26-4.75.89-1.04,1.89-1.57,2.97-1.57s2.21.57,3.48,1.74c1.27,1.17,1.91,2.4,1.91,3.66s-.4,2.47-1.19,3.76c-3.09,5.54-5.56,9.25-7.36,11.02l18.25-12.67c6.44-4.42,8.09-4.98,8.82-4.98,1.01,0,2.11.33,3.25.97,1.24.7,1.86,1.53,1.86,2.46,0,.84-.26,1.68-.78,2.5l-9.11,12.48c-.39.48-.69.87-.93,1.17,11.15-7.59,18.88-12.97,22.96-15.99,4.11-3.05,6.61-5.01,7.43-5.83,1.47-1.06,2.64-1.54,3.64-1.54s1.65.12,2.03.36l3.1,2.4c1.03.51,1.59,1.27,1.59,2.21,0,.86-.23,1.57-.67,2.13-5.53,6-9.93,10.75-13.24,14.29-3.37,3.61-5.73,6.17-7.19,7.82-2.36,2.81-3.83,5.11-4.37,6.81-.01.03-.02.07-.04.1-.7,1.22-1.05,2.31-1.05,3.25,0,.28,0,.76,1.11.76.69,0,2.23-.33,5.67-1.91,2.8-1.29,6.22-3.3,10.14-5.97,3.95-2.69,9.26-6.57,15.78-11.52,6.58-4.99,12.39-9.25,17.29-12.67.09-.06.19-.09.29-.09.11,0,.22.04.31.11.96.75,1.45,1.68,1.45,2.77s-.48,2.05-1.43,2.89c-2.94,2.85-6.75,6.49-11.32,10.83-4.57,4.33-11.61,10.2-20.95,17.44-9.55,7.41-16.08,11.01-19.96,11.01ZM139.53,17.96c-4.74,3.1-11.23,8.54-19.24,16.13-8,7.59-13.6,13.58-16.65,17.83-.22.27-.33.46-.39.58,1.79-.34,6.87-3.73,20.55-17.03,12.81-12.46,16.47-16.79,17.32-18.25l-1.58.74Z"/>
    <path class="cls-1" d="M149.95,5.62c1.12,0,2.14.49,3.08,1.47.93.98,1.58,1.98,1.96,3.01l.7,1.4c0,2.15-3.31,6.85-9.93,14.13-6.81,7.55-14.66,14.75-23.57,21.61-8.9,6.85-17.18,12.71-24.82,17.55-6.25,4.1-9.37,8.39-9.37,12.87,0,2.89.79,4.34,2.38,4.34,3.08,0,9.16-2.75,18.25-8.25,8.87-5.37,16.97-10.74,24.29-16.11.73-.97,1.47-1.93,2.22-2.84,3.45-4.24,5.73-6.6,6.85-7.06,1.68-1.02,3.5-1.54,5.45-1.54s3.82.37,5.59,1.12c.56.28.84.65.84,1.12s-.44,1.17-1.33,2.1c-.89.93-2.24,2.38-4.06,4.33-1.82,1.96-4.52,5.34-8.11,10.14-3.59,4.8-5.99,8.83-7.2,12.1-.75,1.31-1.12,2.47-1.12,3.5s.56,1.54,1.68,1.54c.65,0,1.77-.28,3.36-.84,15.53-8.14,30.76-17.58,45.7-28.31.42-.68.84-1.34,1.22-1.97,1.35-2.19,2.42-3.75,3.22-4.69.79-.93,1.65-1.4,2.59-1.4s1.98.54,3.15,1.61c1.16,1.07,1.75,2.17,1.75,3.29s-.37,2.29-1.12,3.5c-3.17,5.69-5.64,9.37-7.41,11.05-.28.28-.42.54-.42.77s.09.35.28.35l.42-.14,18.74-13.01c4.76-3.26,7.6-4.89,8.53-4.89s1.93.3,3.01.91c1.07.61,1.61,1.28,1.61,2.03s-.23,1.49-.7,2.24l-9.09,12.45c-1.21,1.49-1.82,2.33-1.82,2.52s.05.28.14.28l.7-.42c11.65-7.92,19.56-13.43,23.71-16.5,4.15-3.08,6.64-5.03,7.48-5.87,1.3-.93,2.4-1.4,3.29-1.4s1.47.09,1.75.28l3.08,2.38c.93.47,1.4,1.07,1.4,1.82s-.19,1.35-.56,1.82c-5.5,5.97-9.91,10.72-13.22,14.27-3.31,3.54-5.71,6.15-7.2,7.83-2.43,2.89-3.92,5.22-4.48,6.99-.75,1.31-1.12,2.47-1.12,3.5,0,.84.54,1.26,1.61,1.26s3.03-.65,5.87-1.96c2.84-1.3,6.25-3.31,10.21-6.01,3.96-2.7,9.23-6.55,15.8-11.54,6.57-4.99,12.33-9.21,17.27-12.66.84.65,1.26,1.45,1.26,2.38s-.42,1.77-1.26,2.52c-2.99,2.89-6.76,6.5-11.33,10.84-4.57,4.33-11.54,10.14-20.91,17.41-9.37,7.27-15.92,10.91-19.65,10.91-7.18,0-10.77-3.82-10.77-11.47,0-2.89,1.12-5.92,3.36-9.09l6.01-8.25c.56-.84.84-1.33.84-1.47,0-.03-.01-.05-.04-.05-.1,0-.36.18-.79.54-16.22,13.52-26.57,21.45-31.05,23.78-.75.47-1.68.7-2.8.7-3.08,0-4.62-1.4-4.62-4.2,0-.93.23-1.77.7-2.52,5.41-7.83,9.56-13.1,12.45-15.8l2.38-2.38c.19-.19.28-.37.28-.56s-.09-.28-.28-.28-.47.19-.84.56l-14.96,11.75c-8.67,6.81-13.4,10.42-14.2,10.84-.79.42-1.52.63-2.17.63s-1.68-.4-3.08-1.19c-1.4-.79-2.1-1.7-2.1-2.73,0-.28.14-.65.42-1.12,5.47-6.03,10.05-11.42,13.75-16.18-4.39,3.7-8.51,7.09-12.35,10.16-11,8.86-19.11,14.08-24.34,15.66-1.68.46-3.5.7-5.45.7-7.18,0-10.77-3.82-10.77-11.47,0-2.46,1.12-5.8,3.34-9.99-2.16,1.78-4.26,3.49-6.27,5.1-11,8.86-19.11,14.08-24.33,15.66-1.68.46-3.4.7-5.17.7s-3.17-.14-4.2-.42c-1.03-.28-2.15-.89-3.36-1.82-2.43-2.05-3.64-6.62-3.64-13.71,0-1.96.84-4.94,2.52-8.95,1.68-4.01,4.45-8.86,8.32-14.55,3.87-5.69,8.39-11.37,13.57-17.06,5.17-5.69,11.75-11.37,19.72-17.06,7.97-5.69,16.48-10.3,25.52-13.85,1.4-.47,2.66-.7,3.78-.7M102.96,53.03c2.33,0,9.39-5.73,21.19-17.2,11.79-11.47,17.69-17.85,17.69-19.16l-.14-.28-2.38,1.12c-4.85,3.17-11.31,8.58-19.37,16.22-8.07,7.65-13.64,13.61-16.71,17.9-.37.47-.56.82-.56,1.05s.09.35.28.35M149.95,4.62c-1.22,0-2.6.25-4.09.75-.02,0-.03.01-.05.02-9.08,3.56-17.74,8.25-25.74,13.96-7.99,5.7-14.68,11.49-19.88,17.2-5.18,5.7-9.78,11.48-13.65,17.17-3.89,5.71-6.72,10.67-8.42,14.72-1.75,4.17-2.6,7.23-2.6,9.34,0,7.47,1.31,12.2,3.99,14.47,1.35,1.04,2.59,1.71,3.74,2.02,1.12.31,2.58.45,4.46.45s3.68-.25,5.44-.74c5.42-1.65,13.49-6.83,24.7-15.85.92-.74,1.87-1.5,2.85-2.3-1.03,2.53-1.54,4.65-1.54,6.41,0,8.16,4.07,12.47,11.77,12.47,2.03,0,3.96-.25,5.72-.74,5.42-1.65,13.49-6.83,24.7-15.85,1.41-1.13,2.87-2.31,4.38-3.54-2.19,2.57-4.58,5.27-7.14,8.1-.04.05-.08.1-.12.16-.38.64-.56,1.16-.56,1.63,0,1.41.88,2.62,2.61,3.6,1.59.9,2.72,1.32,3.57,1.32s1.7-.25,2.64-.75c.55-.29,2.63-1.74,14.35-10.94l8.48-6.66c-2.47,2.95-5.46,6.97-8.94,12.01-.59.94-.88,1.97-.88,3.09,0,3.35,1.99,5.2,5.62,5.2,1.29,0,2.4-.28,3.29-.83,4.17-2.18,12.98-8.83,26.84-20.26l-3.11,4.26c-2.36,3.34-3.55,6.59-3.55,9.68,0,8.16,4.07,12.47,11.77,12.47,3.99,0,10.62-3.64,20.26-11.12,9.34-7.25,16.4-13.13,20.98-17.48,4.56-4.33,8.38-7.98,11.34-10.85,1.03-.91,1.56-2.01,1.56-3.24s-.57-2.33-1.64-3.17c-.18-.14-.4-.21-.61-.21-.2,0-.4.06-.57.18-4.9,3.42-10.72,7.69-17.3,12.68-6.52,4.95-11.82,8.82-15.76,11.51-3.9,2.66-7.28,4.66-10.06,5.93-3.53,1.62-4.94,1.87-5.46,1.87-.45,0-.58-.09-.59-.1,0,0-.02-.05-.02-.16,0-.85.33-1.86.99-3,.04-.06.06-.13.09-.2.52-1.64,1.96-3.88,4.29-6.65,1.45-1.63,3.8-4.19,7.17-7.79,3.34-3.58,7.79-8.38,13.22-14.27.02-.02.03-.04.05-.05.52-.65.78-1.47.78-2.44,0-.78-.33-1.86-1.86-2.67l-3-2.32s-.04-.03-.06-.04c-.46-.31-1.18-.45-2.3-.45s-2.37.52-3.87,1.58c-.05.03-.09.07-.13.11-.8.8-3.28,2.74-7.37,5.78-3.75,2.78-10.6,7.57-20.39,14.25l8.16-11.18s.03-.04.04-.06c.56-.9.85-1.84.85-2.77,0-1.13-.71-2.1-2.11-2.9-1.22-.69-2.4-1.04-3.5-1.04-.84,0-2.58.6-9.1,5.07l-15.28,10.61c1.44-2.01,3.14-4.77,5.12-8.32.82-1.33,1.25-2.68,1.25-3.98,0-1.4-.7-2.76-2.07-4.02-1.37-1.26-2.63-1.87-3.82-1.87s-2.36.59-3.35,1.75c-.84.98-1.92,2.56-3.31,4.81-.36.58-.73,1.18-1.12,1.8-14.79,10.61-30.05,20.06-45.35,28.08-1.88.66-2.66.76-2.96.76-.68,0-.68-.17-.68-.54,0-.85.33-1.86.99-3,.03-.05.05-.1.07-.15,1.17-3.15,3.55-7.14,7.07-11.85,3.55-4.75,6.25-8.13,8.04-10.06,1.91-2.06,3.2-3.43,4.05-4.33,1.11-1.17,1.6-2.03,1.6-2.79,0-.49-.18-1.41-1.39-2.01-.02,0-.04-.02-.06-.03-1.89-.79-3.9-1.2-5.98-1.2s-4.1.55-5.92,1.65c-.85.38-2.53,1.62-7.17,7.32-.68.84-1.38,1.74-2.15,2.75-7.26,5.32-15.36,10.69-24.09,15.97-11.07,6.7-15.75,8.11-17.73,8.11-.91,0-1.38-1.12-1.38-3.34,0-4.1,3-8.14,8.92-12.03,7.62-4.83,15.99-10.75,24.89-17.6,8.91-6.86,16.88-14.17,23.7-21.73,9.13-10.03,10.19-13.25,10.19-14.79,0-.16-.04-.31-.11-.45l-.68-1.35c-.42-1.13-1.15-2.24-2.15-3.3-1.13-1.18-2.4-1.78-3.8-1.78h0ZM104.7,51.33c3.15-4.16,8.5-9.83,15.94-16.88,7.76-7.35,14.08-12.68,18.82-15.84-1.88,2.29-6.21,6.97-16.01,16.49-11.19,10.88-16.36,14.84-18.75,16.23h0Z"/>
  </g>
</svg>